<svg xmlns="http://www.w3.org/2000/svg" xmlns:xlink="http://www.w3.org/1999/xlink" width="500" height="600" version="1.0">
  <path fill="#fd0" stroke="#000" stroke-width="4" d="M2 334.296V2h496v332.296c0 102.214-78.656 240.768-248 263.686C80.788 575.064 2 436.51 2 334.296Z"/>
  <g id="a" stroke="#000" stroke-linecap="round" stroke-linejoin="round" stroke-width="3">
    <path fill="#db0811" d="M159.76 358.995c-24.94 19.304-43.32 23.728-51.5 22.026-14.1-2.892-15.19-22.877-24.4-24.938-9.22-2.051-20.06 4.443-15.73 17.943 1.27-2.742 5.6-5.464 5.6-5.464-1.98 5.124 2.72 15.03 13.02 7.846-.18 7.185 11.92 11.798 17.53 9.576-19.7 12.13-41.75-14.01-55.48-10.767-8.71 2.06-15.19 18.793-9.4 28.71a31.38 29.665 0 0 0 6.87-9.737c-.6 6.769 8.05 12.062 13.37 8.707 3.24-2.052 4.52-7.516 4.52-7.516 2.35 3.413 15.36 9.907 31.26 1.541-20.04 12.743-35.24 9.737-38.31 10.758-3.07 1.03-18.98 17.252-.72 31.102a74.05 70.002 0 0 0 2.34-10.777s1.61 3.62 3.44 4.622c4.27 2.326 14.52.095 15.36-7.524a7.58 7.166 0 0 0-1.45-4.954c30.37-12.98 30.9-12.81 40.85-5.975-4.52 4.784-8.5 9.567-1.27 13.5 7.23 3.923 10.48-.35 11.39-2.571 2.6 3.913 3.07 11.967 2.35 14.36 11.83-4.86 9.94-21.536 7.4-24.948-2.52-3.413-11.74-11.278-12.1-14.52-.36-3.253 20.85-15.958 43.21-17.924 20.16-1.759 12.81-38.627-8.15-23.076z" transform="matrix(1.02397 0 0 1.02406 -.048 -3.64)"/>
    <path fill="none" d="M46.26 383.489c3.07 3.025-.13 12.195-.13 12.195m16.1-6.637c2.18 1.938 2.18 6.523 2.18 6.523m14.95-35.034c-.9 4.471-5.5 7.979-5.5 7.979m-17.89 47.834c4.1 3.62 2.94 12.195 2.94 12.195m12.65-13.046s2.98 1.54 4.42 4.613m42.48-9.32c-1.02 2.655-1.92 3.26-1.92 3.26m12.78 6.523c-1.4 1.702-2.17 4.954-2.17 4.954m29.9-50.49c5.5 1.2 8.7.472 14.06-9.19" transform="matrix(1.02397 0 0 1.02406 -.048 -3.64)"/>
  </g>
  <use xlink:href="#a" width="100%" height="100%" transform="matrix(-1 0 0 1 500 0)"/>
  <path d="M68.456 19.346c-4.598 0-8.632 1.917-11.704 6.36 28.17 9.216 17.633 17.88 35.634 27.639-23.04 14.782-37.303 41.763-58.653 33.02-4.024 26.662 19.763 40.97 54.957 13.612-26.47 39.991-42.004 44.967-51.998 38.85-6.471 25.73 15.462 41.723 49.182 13.862-16.845 22.392-33.76 57.804-51.035 41.24-4.813 33.07 23.52 52.954 58.315 8.82-33.31 56.342-46.14 64.338-57.301 55.596 4.403 34.609 34.118 54.61 83.7-30.572-11.879 27.745-25.774 64.803-46.878 84.087-11.141 10.165-18.903 19.826-36.556 10.91-1.67 34.957 46.806 35.955 69.425 10.881 29.265-32.46 38.85-65.402 54.25-102.383-9.717 70.244-22.158 92.587-30.647 100.234 42.157 6.109 60.414-20.87 68.432-78.433 5.345 19.681 12.083 41.405 13.568 57.446-32.706 41.327-38.993 44.541-69.088 37.61 10.998 17.813 18.053 18.558 31.405 20.04-2.621 30.435-6.277 40.339 12.565 68.79 2.355-24.25 7.495-32.091 26.428-50 11.776 35.625 23.04 46.283 23.04 68.055 0 24.009-22.999 27.194-31.416 21.782-6.543-4.21-11.776-13.117-4.188-23.756-15.441.242-35.06 6.931-32.972 26.477-42.392-27.717-69.61-24.493-85.573-10.146 35.849-.494 43.18 10.146 63.855 39.837 20.674 29.69 59.667 40.823 96.048-.252-1.054 17.328-15.974 33.157-15.974 33.157 6.554 1.974 16.753.242 16.753.242s3.4 9.903 9.164 14.85c5.755-3.96 9.155-13.853 9.155-13.853s10.209 1.733 16.752-.252c0 0-14.92-15.838-15.964-33.157 36.382 41.076 75.364 29.943 96.049.252 20.674-29.691 27.995-40.33 63.855-39.836-15.974-14.347-43.181-17.571-85.584 10.145 2.1-19.555-17.53-26.235-32.972-26.477 7.588 10.649 2.355 19.555-4.188 23.757-8.417 5.411-31.405 2.226-31.405-21.782 0-21.763 11.263-32.43 23.04-68.056 19.025 17.997 24.062 25.75 26.418 50.001 18.851-28.461 15.185-38.345 12.574-68.782 13.342-1.481 20.408-2.226 31.405-20.039-30.105 6.922-36.381 3.708-69.097-37.61 1.075-20.64 8.294-41.25 14.284-60.118 7.885 58.792 26.101 86.275 68.678 80.099-8.5-7.638-20.94-29.981-30.658-100.215 15.4 36.96 24.985 69.914 54.26 102.383 22.61 25.064 71.085 24.066 69.426-10.89-17.664 8.905-25.415-.737-36.556-10.92-21.114-19.266-35.02-56.333-46.888-84.078 49.581 85.191 79.297 65.181 83.7 30.572-11.161 8.742-23.982.746-57.291-55.597 34.784 44.125 63.117 24.25 58.305-8.81-17.275 16.555-34.19-18.857-51.035-41.24 33.73 27.852 55.653 11.86 49.181-13.872-9.994 6.118-25.527 1.142-51.997-38.849 35.194 27.358 58.98 13.05 54.967-13.611-21.36 8.742-35.635-18.239-58.664-33.021 18.012-9.759 7.475-18.423 35.635-27.639-7.025-10.155-19.046-7.154-31.365 1.917-14.5 10.697-18.585 10.398-40.836 3.708-19.158-5.76-31.723-7.028-43.918 4.502-8.622 8.15-7.536 25.653 5.53 44.182 15.738 22.353 12.4 38.454 2.113 48.74 7.024.533 16.004-4.142 20.172-13.59 16.264 16.263-12.297 58.152-30.58 52.22-17.53-5.693-18.534-.436-30.432 11.781-3.41-3.301-6.165-6.883-6.687-12.895-.778-9.032 6.533-21.288 9.032-28.452 11.908-34.144 8.898-40.078-1.833-52.208 8.642 5.44 15.441 6.931 26.173-2.71-20.685 3.949-36.116-28.21-45.803-31.434C268.47 48.253 223.19 48 223.19 48l-9.421 29.197 35.85 13.863 5.242 18.055-21.196 8.664s17.786 5.934 10.987 21.278c-6.81 15.335-16.23 13.36-27.75 8.161-11.51-5.189-26.95-6.68-26.418 10.65 14.909-6.196 12.031.483 28.517 10.629-4.915 3.378-9.215 6.902-12.902 10.697-11.919-12.236-12.902-17.503-30.463-11.81-17.189 5.574-45.058-30.8-30.57-52.22 4.158 9.448 13.138 14.113 20.173 13.59-10.286-10.286-13.635-26.387 2.103-48.73 13.066-18.539 14.151-36.05 5.53-44.192-12.186-11.53-24.76-10.262-43.919-4.502-22.25 6.69-26.326 6.99-40.836-3.708-6.922-5.102-13.762-8.277-19.66-8.277Z"/>
  <g stroke="#000" stroke-linecap="round" stroke-linejoin="round">
    <path fill="#fff" stroke-width="1.5" d="M251.338 63.839c-1.782 10.89-2.827 15.402-11.53 14.54-8.704-.871-9.943-5.13-7.854-15.286z"/>
    <path fill="#fd0" stroke-width="4" d="M282.876 52.832c3.072-30.688 13.424-30.05 10.496-34.135-2.427-3.388-11.694 1.472-14.09 5.925-3.471-.368-7.731.745-9.329 3.582-.931-3.33-3.737-5.683-7.198-5.19-3.072-5.808-6.554-9.777-10.68-9.777-4.117 0-7.608 3.97-10.68 9.778-3.461-.494-6.257 1.859-7.199 5.198-1.597-2.846-5.857-3.969-9.318-3.581-2.406-4.454-11.427-8.345-13.537-5.412-2.939 4.085 6.86 2.933 9.933 33.612"/>
    <path fill="none" stroke-width="3" d="M277.418 38.475s-7.475-1.23-7.475-10.262c0 9.033-7.454 10.262-7.454 10.262m-20.828 0s-7.465-1.23-7.465-10.262c0 9.033-7.454 10.262-7.454 10.262m28.517 6.806h28.518m-62.503 7.55h61.602m-51.608 9.885 29.337 1.578"/>
    <path fill="#db0811" stroke-width="3" d="M246.74 106.521c-2.744-4.82-14.387-8.422-34.406-8.422-20.029 0-25.261-1.104-33.115-11.133-5.488 11.636 3.144 21.908 22.906 21.908 19.763 0 22.896-6.564 41.471 2.71z"/>
    <path fill="#db0811" stroke-width="3" d="M207.358 89.077c.256-8.78 7.321-5.809 16.353 2.846 14.264 3.582 23.633 4.801 23.817 10.513.256 8.035-17.274 8.78-22.63 13.117-5.375 4.328-9.42 10.64-7.597 12.489 1.833 1.858 4.188-1.723 22.118-6.302 17.919-4.58 17.796-9.904 20.151-14.6 2.355-4.704 5.223-16.698-4.843-20.416-10.076-3.708-27.35-6.805-28.917-14.347 5.488-4.947 7.188-10.261 2.611-15.344-5.171-5.721-13.609-3.098-17.53 4.337-18.33-.126-12.431 20.523-3.533 27.707z"/>
  </g>
  <path d="M238.261 63.287c-4.495 2.226-3.788 7.919-1.208 10.01 2.59 2.1 8.468 1.8 8.376-4.24-2.457 1.616-5.017 1.713-5.365-.087-.605-3.02 2.723-4.29 4.157-4.202z"/>
  <path fill="#fff" d="M128.254 71.566a7.695 7.695 0 0 0-7.695 7.696c0 1.656.529 3.185 1.42 4.441l-1.061.957a7.664 7.664 0 0 0-5.617-2.45 7.695 7.695 0 0 0 0 15.392 7.683 7.683 0 0 0 6.545-3.663c-13.76 105.618 64.24 156.907 129.843 156.907 66.015 0 144.6-51.923 129.594-158.887l.725-.35c.776 3.43 3.836 5.993 7.5 5.993a7.695 7.695 0 0 0 0-15.391 7.668 7.668 0 0 0-5.514 2.334l-1.119-.902a7.647 7.647 0 0 0 1.373-4.381 7.695 7.695 0 0 0-15.39 0c0 2.723 1.42 5.11 3.554 6.478l-.453 1.17a7.695 7.695 0 1 0-2.973 14.795c3.763 0 6.89-2.703 7.559-6.271-3.9 72.347-56.783 118.95-113.348 123.261-10.942-8.433-6.835-13.746 2.912-6.05v-23.918c-11.03 12.953-14.877 12.12-6.925-4.682h-18.067c7.952 16.801 4.104 17.635-6.926 4.682v23.918c9.748-7.696 13.854-2.383 2.913 6.05-56.432-8.721-107.568-51.965-110.39-125.71l1.464.163c-.032.283-.053.57-.053.862a7.695 7.695 0 1 0 7.695-7.696c-1.29 0-2.502.323-3.57.883l-.557-1.06a7.686 7.686 0 0 0 4.256-6.875 7.695 7.695 0 0 0-7.695-7.696zm248.412 21.418c-.005.12-.013.237-.018.356-.01-.12-.027-.236-.043-.354l.061-.002z"/>
</svg>
